<svg width="16" height="16" viewBox="0 0 16 16" fill="none" xmlns="http://www.w3.org/2000/svg">
<path d="M5.99999 7.99992C4.13332 7.99992 2.66666 6.53325 2.66666 4.66658C2.66666 2.79992 4.13332 1.33325 5.99999 1.33325C7.86666 1.33325 9.33332 2.79992 9.33332 4.66658C9.33332 6.53325 7.86666 7.99992 5.99999 7.99992ZM5.99999 2.66659C4.86666 2.66659 3.99999 3.53325 3.99999 4.66658C3.99999 5.79992 4.86666 6.66658 5.99999 6.66658C7.13332 6.66658 7.99999 5.79992 7.99999 4.66658C7.99999 3.53325 7.13332 2.66659 5.99999 2.66659Z" fill="#4C4C4C"/>
<path d="M14 8H12.6667V6.66667C12.6667 6.26667 12.4 6 12 6C11.6 6 11.3333 6.26667 11.3333 6.66667V8H9.99999C9.59999 8 9.33333 8.26667 9.33333 8.66667C9.33333 9.06667 9.59999 9.33333 9.99999 9.33333H11.3333V10.6667C11.3333 11.0667 11.6 11.3333 12 11.3333C12.4 11.3333 12.6667 11.0667 12.6667 10.6667V9.33333H14C14.4 9.33333 14.6667 9.06667 14.6667 8.66667C14.6667 8.26667 14.4 8 14 8Z" fill="#4C4C4C"/>
<path d="M10.6667 14.6666H1.33333V13.9999C1.33333 11.3999 3.39999 9.33325 6 9.33325C8.6 9.33325 10.6667 11.3999 10.6667 13.9999V14.6666Z" fill="#FF5C39"/>
</svg>
