<svg width="16" height="16" viewBox="0 0 16 16" fill="none" xmlns="http://www.w3.org/2000/svg">
<path d="M0.933319 6.26665L7.99998 13.3333L15.0667 6.26665C11.1333 2.33332 4.86665 2.33332 0.933319 6.26665Z" fill="#FF5C39"/>
<path d="M2.66666 14C2.46666 14 2.33333 13.9333 2.2 13.8C1.93333 13.5333 1.93333 13.1333 2.2 12.8667L12.8667 2.2C13.1333 1.93333 13.5333 1.93333 13.8 2.2C14.0667 2.46667 14.0667 2.86668 13.8 3.13335L3.13333 13.8C3 13.9333 2.86666 14 2.66666 14Z" fill="#4C4C4C"/>
<path d="M3.59999 14.9333C3.39999 14.9333 3.26665 14.8667 3.13332 14.7333C2.86665 14.4667 2.86665 14.0667 3.13332 13.8L13.8 3.13335C14.0667 2.86668 14.4667 2.86668 14.7333 3.13335C15 3.40002 15 3.80001 14.7333 4.06668L4.06665 14.7333C3.93332 14.8667 3.79999 14.9333 3.59999 14.9333Z" fill="white"/>
</svg>
