<svg width="16" height="16" viewBox="0 0 16 16" fill="none" xmlns="http://www.w3.org/2000/svg">
<path d="M13.8 3.13335C14.0666 2.86668 14.0666 2.46667 13.8 2.2C13.5333 1.93333 13.1333 1.93333 12.8667 2.2L11.2 3.86667C7.73332 2.66667 3.73332 3.46669 0.933319 6.26669L4.86665 10.2L2.19999 12.8667C1.93332 13.1333 1.93332 13.5333 2.19999 13.8C2.33332 13.9333 2.53332 14 2.66665 14C2.79998 14 2.99998 13.9333 3.13332 13.8L5.79998 11.1334L12.5333 4.39999L13.8 3.13335Z" fill="#4C4C4C"/>
<path d="M13.7333 5.1333L6.79999 12.0666L8.06666 13.3333L15.1333 6.26664C14.6667 5.86664 14.2 5.46663 13.7333 5.1333Z" fill="#4C4C4C"/>
</svg>
