<svg width="16" height="16" viewBox="0 0 16 16" fill="none" xmlns="http://www.w3.org/2000/svg">
<path d="M12 4.93333L13 3.93333L13.8 3.13333C14.0667 2.86667 14.0667 2.46667 13.8 2.2C13.5333 1.93333 13.1333 1.93333 12.8667 2.2L11.7333 3.33333C10.5333 2.86667 9.26667 2.66667 8 2.66667C5.2 2.66667 2.46667 3.8 0.466667 5.8L0 6.26667L4.4 10.6667L2.2 12.8667C1.93333 13.1333 1.93333 13.5333 2.2 13.8C2.46667 14.0667 2.86667 14.0667 3.13333 13.8L5.33333 11.6L6.26667 10.6667L12 4.93333ZM1.86667 6.26667C4.26667 4.2 7.6 3.46667 10.6667 4.4L5.33333 9.73333L1.86667 6.26667Z" fill="black"/>
<path d="M15.5333 5.80008C15.1333 5.40008 14.6667 5.00008 14.2 4.66675L13.2 5.60008C13.5333 5.80008 13.8 6.00008 14.0667 6.26675L8 12.4001L7.2 11.6001L6.26666 12.5334L8 14.2667L16 6.26675L15.5333 5.80008Z" fill="black"/>
</svg>
